/* XPM */
static char * mspec_xpm[] = {
"32 32 12 1",
" 	c None",
".	c #000000",
"+	c #FF0000",
"@	c #00FF00",
"#	c #00FFFF",
"$	c #0000FF",
"%	c #800080",
"&	c #FFFF00",
"*	c #C0C0C0",
"=	c #008000",
"-	c #FF00FF",
";	c #800000",
"                .               ",
"               .+.              ",
"              .+++.             ",
"             .+++++.            ",
"            .+++++++.           ",
"           .+++++++.@.          ",
"          .+++++++.@@@.         ",
"         .#.+++++.@@@@@.        ",
"        .###.+++.@@@@@@@.       ",
"       .#####.+.@@@@@@@@@.      ",
"      .#######.@@@@@@@@@@@.     ",
"     .#########.@@@@@@@@@@@.    ",
"      .#########.@@@@@@@@@.     ",
"       .#########.@@@@@@@.      ",
"        .#######.@@@@@@@.$.     ",
"       .%.#####.@@@@@@@.$$$.    ",
"      .%%%.###.&.@@@@@.$$$.     ",
"       .%%%.#.&&&.@@@.$$$.      ",
"        .%%%.&&&&&.@.$$$.*.     ",
"       .=.%%%.&&&&&.$$$.***.    ",
"      .===.%%%.&&&.$$$.***.     ",
"       .===.%.-.&.$$$.***.      ",
"        .===.---.-.$.***.       ",
"         .===.-----.***.        ",
"          .===.---.***.         ",
"           .=.;.-.***.          ",
"            .;;;.;.*.           ",
"             .;;;;;.            ",
"              .;;;.             ",
"               .;.              ",
"                .               ",
"                                "};
