/* XPM */
static char * zoomx1_xpm[] = {
"16 15 3 1",
" 	c None",
".	c #C0C0C0",
"+	c #000000",
"................",
"................",
"................",
".+......+....+..",
"..+....+....++..",
"...+..+......+..",
"....++.......+..",
"....++.......+..",
"...+..+......+..",
"..+....+.....+..",
".+......+....+.+",
"................",
"................",
"................",
"................"};
